<?xml version="1.0" standalone="no"?>
<!DOCTYPE svg PUBLIC "-//W3C//DTD SVG 20010904//EN"
 "http://www.w3.org/TR/2001/REC-SVG-20010904/DTD/svg10.dtd">
<svg version="1.0" xmlns="http://www.w3.org/2000/svg"
 width="500.000000pt" height="500.000000pt" viewBox="0 0 500.000000 500.000000"
 preserveAspectRatio="xMidYMid meet">
<metadata>
Created by potrace 1.11, written by Peter Selinger 2001-2013
</metadata>
<g transform="translate(0.000000,500.000000) scale(0.100000,-0.100000)"
fill="#000000" stroke="none">
<path d="M3230 4797 c-91 -26 -174 -98 -213 -186 -15 -34 -21 -68 -22 -130
l-1 -83 -39 -22 c-208 -112 -457 -331 -571 -501 -117 -176 -219 -405 -246
-555 -8 -41 -13 -81 -12 -87 1 -7 2 -32 3 -55 2 -51 -7 -60 107 112 185 280
389 459 627 551 315 121 683 61 1019 -167 45 -30 86 -58 90 -60 4 -3 -34 57
-84 133 -51 76 -94 141 -96 145 -2 4 -57 87 -122 185 l-119 178 24 25 c13 14
36 51 51 84 48 105 32 226 -41 322 -29 38 -116 96 -165 110 -51 15 -138 15
-190 1z"/>
<path d="M1092 4509 c-159 -30 -275 -176 -267 -337 6 -117 84 -229 189 -273
l51 -21 3 -96 c9 -258 59 -490 144 -664 120 -247 318 -491 466 -575 35 -19 65
-33 68 -31 2 3 -16 41 -40 85 -84 153 -170 361 -190 463 -3 14 -10 52 -16 84
-22 112 -20 273 4 385 67 310 306 575 666 738 l94 43 -74 -4 c-41 -3 -127 -7
-190 -10 -63 -4 -158 -9 -210 -11 -52 -3 -144 -7 -205 -10 l-110 -6 -24 56
c-57 132 -211 211 -359 184z"/>
<path d="M3285 3269 c-133 -19 -232 -42 -285 -67 -44 -20 -110 -63 -110 -71 0
-3 43 -7 95 -8 514 -8 881 -171 1081 -479 134 -205 189 -465 161 -763 -4 -41
-5 -73 -3 -70 4 5 75 138 179 339 159 306 176 335 189 331 7 -2 38 -5 68 -6
125 -7 251 68 307 183 37 75 40 191 6 264 -53 116 -164 190 -291 194 -82 3
-132 -11 -203 -56 l-46 -30 -98 50 c-195 100 -415 175 -590 199 -106 14 -326
10 -460 -10z"/>
<path d="M753 3148 c-12 -24 -63 -119 -112 -213 -49 -93 -118 -226 -155 -295
-42 -80 -70 -123 -78 -120 -7 2 -47 4 -88 4 -61 0 -85 -6 -132 -28 -75 -37
-133 -99 -163 -172 -63 -155 9 -336 164 -411 107 -51 271 -33 348 39 l22 21
133 -66 c217 -106 341 -147 568 -187 56 -10 366 -6 430 5 19 3 61 10 92 15
108 17 215 52 279 91 35 21 60 39 54 40 -5 0 -46 2 -90 4 -294 10 -542 62
-718 151 -390 198 -576 574 -535 1082 4 45 6 82 5 82 -1 0 -12 -19 -24 -42z"/>
<path d="M3250 2484 c0 -3 17 -36 39 -72 110 -189 169 -350 220 -602 8 -40 6
-253 -3 -290 -4 -14 -9 -40 -12 -58 -15 -91 -92 -253 -164 -347 -116 -151
-259 -262 -470 -367 l-115 -58 60 4 c33 3 123 8 200 11 140 6 173 8 402 20
l122 7 7 -29 c20 -79 114 -172 204 -201 126 -41 258 -6 348 92 149 163 101
408 -98 505 l-56 27 -3 89 c-1 50 -4 104 -6 120 -4 47 -17 148 -21 170 -2 11
-7 34 -10 50 -38 210 -141 433 -291 628 -118 153 -208 239 -300 286 -44 22
-53 25 -53 15z"/>
<path d="M2797 1757 c-235 -366 -502 -578 -812 -642 -75 -15 -248 -22 -305
-11 -14 3 -41 7 -60 10 -134 20 -349 110 -495 208 -44 29 -85 56 -92 61 -10 6
91 -149 363 -558 l53 -80 -23 -25 c-141 -157 -86 -405 110 -498 50 -23 72 -27
144 -27 73 0 93 4 141 28 66 32 132 99 162 165 16 36 22 67 22 130 l1 82 64
38 c219 128 414 301 534 471 107 152 235 432 262 572 7 37 8 169 1 175 -2 2
-34 -42 -70 -99z"/>
</g>
</svg>
